/* XPM */
static char *result[] = {
/* columns rows colors chars-per-pixel */
"32 32 19 1 ",
"  c #96BC20",
". c #90B41F",
"X c #A5C92E",
"o c #88AB1D",
"O c #A0C52D",
"+ c #596C64",
"@ c #86B4B6",
"# c #AACCCC",
"$ c #C9E0DF",
"% c #E2EFEE",
"& c #80DAF1",
"* c #76C9E0",
"= c #4C8191",
"- c #76C3D7",
"; c #6194A4",
": c #4D6570",
"> c #2E1E22",
", c #6DBAD1",
"< c #65ACC0",
/* pixels */
" .  .  X  ..  .  o .    O      .",
"  .. .  O X     .  . o  .X X .. ",
"...  . .   o +++++.  .  .   .  .",
".  O  . o .++@###@++  .   . o X ",
" XO  .   ++@#$$$$$#@++ . o.. .OX",
" X   . X+@#$$$%%%$$$#@+X o. o  O",
"   .o .+@#$$$%%%%%$$$#@+.   .  .",
" o  o.+@#$$$$%%%%%$$$$#@+.   .. ",
". . .+@#$$$$$$%%%$$$$$$#@+  X  .",
" . .O+##$$$$$$$$$$$$$$$##+X..   ",
".o. +@###$$$#$$$$$#$$$###@+  .. ",
".o  +@#@+#$#+#$$$#+#$####@+.o.  ",
" .. +@@+&+#+&+#$#+&+#+@#@@+     ",
" .  +@+*&&+&&&+#+&&&+&+@+@+  X .",
"  X  +=*&&&-;;-+&&&&&&&++@+ XO  ",
".  X X=*&&-:>>:-&&&&&&&*=+X O  .",
" . .  =*&&;>>>>;&&&&&&&*=.O . o ",
" .   o=*&&;>>>>;&&&&&&&*=    .  ",
"   X  =*&&-:>>:-&&&&&&&*=  .   o",
" XO  .=*&&&-;;-&&&&&&&&*=.o. O  ",
"XO  .=,<*&&&*&&&&&&&&&**= o   X ",
"O    =,=*&&=&&&&&&&&&&*,=. .. O ",
" . . =<=*&=&&,=,&&&&&**<=.  o  .",
".   . ==,*=&*=&&&&&&**,=     .  ",
" o o.  =<,*==********,<=  X   . ",
"  .o  . =<,*********,<====O  .o ",
" .      =<<,*******,<<<<<<=.=  .",
"  O  X X =<<<,,,,,<<<<<<<<<=<=  ",
" X.  OX  .=<<<<<<<<<<<<<==<<<= .",
"XO  . O... ==<<<<<<<<<==  === X ",
"O .   .  o   =========  o.  . O ",
"   . .. .  X .. . . . ..  .  .. "
};
