/* XPM */
static char *result[] = {
/* columns rows colors chars-per-pixel */
"32 32 15 1 ",
"  c #2E1E22",
". c #332F2A",
"X c #760000",
"o c #4C453D",
"O c #645E55",
"+ c #7D766C",
"@ c #857C57",
"# c #88AB1D",
"$ c #90B41F",
"% c #96BC20",
"& c #A0C52D",
"* c #A5C92E",
"= c #A29973",
"- c #C1B99C",
"; c #D9D9DD",
/* pixels */
"%$%%$%%*%%$$%%$%%#%$%%%%&%%%%%%$",
"%%$$%$%%&%*%%%%%$%%$%#%%$*%*%$$%",
"$$$%%$%$%%%#%$%*%%$%%$%%$%%%$%%$",
"$%%&%%$%#%$#%$%&%$*$%%$%%%$%#%*%",
"%*&%%$%%%%$%%%%%$%%%&*%$%#$$%$&*",
"%*%%%$%**%%%*%%%%#%$%&%*%#$%#%%&",
"%%%$#%$%&*%*%#$%$#$%%%&$$%%%$%%$",
"%#%%#$%$%&$*$#%$%%$$%%%%%$%%%$$%",
"$%$%$%%$$$$%%$$#%$%%#.%$%&%%*%%$",
"%$%$&*%%%$%%%%$$%%%$.o.%%%*$$%%%",
"$#$%%&*%*%%$%$%%%*%.o+o.%%%%%$$%",
"$#%%%%&*%%$%%%$%%%*.o=+..$%$#$%%",
"%$$%$%$%%$%%&%%*$%.o=-=.o..%%%%%",
"%$%%....%%%%%*$&$%.O=-+OOOo.%*%$",
"%%*.O++O.%%$%%%%%.oO=O++++Oo.&%%",
"$%.@=--.%&%%%$%$$.OOO++++++Oo.%$",
"%$.@=@.$%%*%%%$$.oO+++++++++O.#%",
"%$.@@O.%%%......oOO+++++o..OO.%%",
"%%%.@oO...ooOOOOOOO+++++. ;oOo.#",
"%*&.@oo.oO++++++++O+++++OXXo+Oo.",
"*&%%.@.oO++++++++++++++++OO++. .",
"&%%%%.oO++++++++++++++++++++-=@.",
"%$%$%.oO+++++O++++++++++++--=@.$",
"$%%%$.oO+++++oO+++++++@@@==@..%%",
"%#%#$%.o++++O.@==o+++o......%%$%",
"%%$#%%..O++O.@@@.O++o.o.%*&%%$#%",
"%$%%%.o.oO++o...o++O.ooo.&$$%%%$",
"%%&%%.oo.o+++.*.+++.%.oo.$$%%$%%",
"%*$%%&....O++.$.O++.%%..$%#%%*%$",
"*&%%$%&$$$...%%#...*%%*%%%#$%%*%",
"&%$%%%$%%#%%%%$%$%%&%*%%#$%%$%&%",
"%%%$%$$%$%%*%$$%$%$%$%$$%%$%%$$%"
};
