/* XPM */
static char *result[] = {
/* columns rows colors chars-per-pixel */
"32 32 15 1 ",
"  c #2E1E22",
". c #332F2A",
"X c #760000",
"o c #4C453D",
"O c #645E55",
"+ c #7D766C",
"@ c #857C57",
"# c #88AB1D",
"$ c #90B41F",
"% c #96BC20",
"& c #A0C52D",
"* c #A5C92E",
"= c #A29973",
"- c #C1B99C",
"; c #D9D9DD",
/* pixels */
"%$%%$%%*%%$$%%$%%#%$%%%%&%%%%%%$",
"%%$$%$%%&%*%%%%%$%%$%#%%$*%*%$$%",
"$$$%%$%$%%%#%$%*%%$%%$%%$%%%$%%$",
"$%%&%%$%#%$#%$%&%$*$%%$%%%$%#%*%",
"%*&%%$%%%%$%%%%%$%%%&*%$%#$$%$&*",
"%*%%%$%**%%%*%%%%#%$%&%*%#$%#%%&",
"%%%$#%$%&*%*%#$%$#$%%%&$$%%%$%%$",
"%#%%#$%$%&$*$#%$%%$$%%%%%$%%%$$%",
"$%$%$%%$$$$%%$$#%$%%.$%$%&%%*%%$",
"%$%$&*%%%$%%%%$$%%%.o.%%%%*$$%%%",
"$#$%%&*%*%%$%$%%%*.o+o.$%%%%%$$%",
"$#%%%%&*%%$%%%$%%%.o=+..%$%$#$%%",
"%$$%.%$%%$%%&%%*$.o=-=.o..$%%%%%",
"%$%.o.$#%%%%%*$&$.O=-+OOOo.%%*%$",
"%%.=O.%#$%%$%%%%.oO=O++++Oo.*&%%",
"$.@-+.%%%&%%%$%$.OOO++++++Oo.%%$",
"%.@-+.%$%%*%%%$.oO+++++++++O.%#%",
"%.@=-+.%%......oOO+++++o..OO.$%%",
"%%.@=Oo..ooOOOOOOO+++++. ;oOo.%#",
"%*&.@@.oO++++++++O+++++OXXo+Oo.%",
"*&%%..oO++++++++++++++++OO++. .%",
"&%%%.oO++++++++++++++++++++-=@.%",
"%$%$.oO++++++++++++++++++--=@.%$",
"$%%%.O+++++O++++++++o@@@==@..$%%",
"%#%#.O++++Oo@===@+++o......%%%$%",
"%%$.o+++OOo.@@@@@.+++.&*%*&%%$#%",
"%$%.O++o..........O++O.&%&$$%%%$",
"%%&.O++..ooo.%.oo.oO++o.%$$%%$%%",
"%*$.o++.%...%*$....o++O.$%#%%*%$",
"*&%%...$$$%%$%%#%%&....%%%#$%%*%",
"&%$%%%$%%#%%%%$%$%%&%*%%#$%%$%&%",
"%%%$%$$%$%%*%$$%$%$%$%$$%%$%%$$%"
};
