/* XPM */
static char *result[] = {
/* columns rows colors chars-per-pixel */
"32 32 15 1 ",
"  c #2E1E22",
". c #332F2A",
"X c #760000",
"o c #4C453D",
"O c #645E55",
"+ c #7D766C",
"@ c #857C57",
"# c #88AB1D",
"$ c #90B41F",
"% c #96BC20",
"& c #A0C52D",
"* c #A5C92E",
"= c #A29973",
"- c #C1B99C",
"; c #D9D9DD",
/* pixels */
"%$%%$%%*%%$$%%$%%#%$%%%%&%%%%%%$",
"%%$$%$%%&%*%%%%%$%%$%#%%$*%*%$$%",
"$$$%%$%$%%%#%$%*%%$%%.%%$%%%$%%$",
"$%%&%%$%#%$#%$%&%$*$.o.%%%$%#%*%",
"%*&%%$%%%%$%%%%%$%%%.+o.%#$$%$&*",
"%*%%%$%**%%%*%%%%#%$.+O.%#$%#%%&",
"%%%$#%$%&*%*%#$%$#$.++O.$%%%$%%$",
"%#%%#$%$%&$*$#%$%%.O+Oo.%$%%%$$%",
"$%$%$%%$$$$%%$$#%.O+Oo.$%&%%*%%$",
"%$%$&*%%%$%%%%.....oo.%%%%*$$%%%",
"$#$%%&*%*%%$..oOOOo..$%$%%%%%$$%",
"$#%%%%&*%%$.oOO+++OOo.%$%$%$#$%%",
"%$$%$%$%%$.o.O+++++O.o.%$#$%%%%%",
"%$%%$%$#%%.+o.OOOOO.o+.&%%$%%*%$",
"%%*%%*%#$%.=+o.....o+=.%&*%%*&%%",
"$%%*%*%%%.o-=O.ooo.O=-o.%&*%&%%$",
"%$%$%%%$%.o-O+OOOOO+O-o.%$&%$%#%",
"%$%%%#$%%.oO+++++++++Oo.%%%%%$%%",
"%%%*%%%$.ooOO+++++++OOoo.%%$%%%#",
"%*&%%$%#.ooo..O+++O..ooo.$#$%&%%",
"*&%%$$%#.oo. ;oOOOo; .oo.%#%%%*%",
"&%%%%%%$.oOOXXoOOOoXXOOo.$%$$%&%",
"%$%$%%*%%.oOOOO+++OOOOo.#$%%#%%$",
"$%%%$%&%*..@OO+++++OO@..%%%%%$%%",
"%#%#$%%$$.o.@=-. .-=@.o.%%*%%%$%",
"%%$#%%$%%.oO.@==@==@.oo.%*&%%$#%",
"%$%%%%%%$.o+O..@@@..oO.&%&$$%%%$",
"%%&%%*%*%$.++O.....oOo.%%$$%%$%%",
"%*$%%&*%%$.O++o.%.ooo.%%$%#%%*%$",
"*&%%$%&$$$%o++O.%%...%*%%%#$%%*%",
"&%$%%%$%%#%.O++.$%%&%*%%#$%%$%&%",
"%%%$%$$%$%%*%$$%$%$%$%$$%%$%%$$%"
};
