/* XPM */
static char *result[] = {
/* columns rows colors chars-per-pixel */
"32 32 15 1 ",
"  c #2E1E22",
". c #332F2A",
"X c #760000",
"o c #4C453D",
"O c #645E55",
"+ c #7D766C",
"@ c #857C57",
"# c #88AB1D",
"$ c #90B41F",
"% c #96BC20",
"& c #A0C52D",
"* c #A5C92E",
"= c #A29973",
"- c #C1B99C",
"; c #D9D9DD",
/* pixels */
"%$%%$%%*%%$$%%$%%#%$%%%%&%%%%%%$",
"%%$$%$%%&%*%%%%%$%%$%#%%$*%*%$$%",
"$$$%%$%$%%%#%$%*%%$%%$%%$%%%$%%$",
"$%%&%%$%#%$#%$%&%$*$%%$%%%$%#%*%",
"%*&%%$%%%%$%%%%%$%%%&*%$%#$$%$&*",
"%*%%%$%**%%%*%%%%#%$%&%*%#$%#%%&",
"%%%$#%$%&*%*%#$%$#$%%%&$$%%%$%%$",
"%#%%#$%$%&$*$#%$%%$$%%%%%$%%%$$%",
"$%$%$%%$$$$%%$$#%$%%#$%$%&%%*%%$",
"%$%$&*%%%$%.%%$$%%%$#%%%%%*$$%%%",
"$#$%%&*%*%.o.$%%%*%%%$%$%%%%%$$%",
"$#%%%%&*%.o+o.$%%%*%%%%$%$%$#$%%",
"%$$%$%$%..+=o.%*$%&%*$$%$#$%%%%%",
"%$%%$%..o.=-=o.&$%%$%%%&%%$%%*%$",
"%%*%%.oOOO+-=O.%%$%$%$%%&....&%%",
"$%%*.oO++++O=Oo.$%%%$#%%.O++O.%$",
"%$%.oO++++++OOO.%%#%%#%$%.--=@.%",
"%$%.O+++++++++Oo.%%%%$%%%%.@=@.%",
"%%%.OO..o+++++OOo......%$%.O@@.#",
"%*.oOo; .+++++OOOOOOOoo...Oo@.%%",
"*.oO+oXXO+++++O++++++++Oo.oo@.*%",
"&. .++OO++++++++++++++++Oo.@.%&%",
"%.@=-++++++++++++++++++++Oo.#%%$",
"$%.@=--++++++++++++O+++++Oo.%$%%",
"%#%..@==@@@+++++++Oo+++++Oo.%%$%",
"%%$#%......o+++o==@.O++++o.%%$#%",
"%$%%%%%%$.o.o++O.@@@.O++O..$%%%$",
"%%&%%*%*.ooo.O++o...o++Oo.o.%$%%",
"%*$%%&*%.oo.%.+++.%.+++o.oo.%*%$",
"*&%%$%&$$..%$.++O.&.++O....$%%*%",
"&%$%%%$%%#%%%%...%%&...%#$%%$%&%",
"%%%$%$$%$%%*%$$%$%$%$%$$%%$%%$$%"
};
