/* XPM */
static char *result[] = {
/* columns rows colors chars-per-pixel */
"32 32 12 1 ",
"  c #96BC20",
". c #90B41F",
"X c #A5C92E",
"o c #88AB1D",
"O c #A0C52D",
"+ c #332F2A",
"@ c #4C453D",
"# c #645E55",
"$ c #7D766C",
"% c #A29973",
"& c #C1B99C",
"* c #857C57",
/* pixels */
" .  .  X  ..  .  o .    O      .",
"  .. .  O X     .  . o  .X X .. ",
"...  . .   o . X  .  .  .   .  .",
".  O  . o .o + O .X.  .+  . o X ",
" XO  .    . +@+ .   OX+@+o.. .OX",
" X   . XX   +#@+ o . +@#+o. o  O",
"   .o . OX X+##@+++++@##+   .  .",
" o  o. . O.+@#$#+@@@+#$#@+   .. ",
". . .  ....+@#$$#####$$#@+  X  .",
" . .OX   . +@$$$$$$$$$$$@+X..   ",
".o.  OX X +@#$$$$$$$$$$$#@+  .. ",
".o    OX  +@#$$$$$$$$$$$#@+.o.  ",
" .. . .  .+@@#$$$$$$$$$#@@+     ",
" .  . .o  +@@@###$$$###@@@+  X .",
"  X  X o.  +@+@#$$$$$#@+@+  XO  ",
".  X X   O ++@#$$$$$$$#@++X O  .",
" . .   .  X+@##$$$$$$$##@+O . o ",
" .   o.   O+@@@#$$+++#@@@+   .  ",
"   X   .   .+@#$$+%&%+#@+  .   o",
" XO  . o . +@#$$+%&$+$$#@+o. O  ",
"XO  .. o o.+@$$+%&$+$$$$@+o   X ",
"O      .   +#$$+%&$+$$$$#+ .. O ",
" . .  X  . +#$$+*%%+$$$$#+  o  .",
".   . O X .+@#$$+@%%%$$#@+   .  ",
" o o.  ..  +@@#*%%%%%*#@@+X   . ",
"  .o  .  . +@@@+*****+@@@+O  .o ",
" .      . X +@#@+++++@#@+O..   .",
"  O  X X .OX+#$@+  .+@$#+..  .  ",
" X.  OX  . O+$$#+X  +#$$+ o  X .",
"XO  . O...  +#$$+ OX+$$#+ o.  X ",
"O .   .  o   +++.  O +++o.  . O ",
"   . .. .  X .. . . . ..  .  .. "
};
