/* XPM */
static char *_ba028cf3bb64f7ea57d20d76d8cb4048Iw0jog3rTdtF80v[] = {
/* columns rows colors chars-per-pixel */
"32 32 44 1 ",
"  c #191041",
". c #191043",
"X c #191042",
"o c #181042",
"O c #180F42",
"+ c #181041",
"@ c #180F41",
"# c #190F41",
"$ c #190F42",
"% c #180F40",
"& c #190F43",
"* c #181043",
"= c #131B3D",
"- c #0D2738",
"; c #131A3D",
": c #281E5C",
"> c #1A1043",
", c #36465C",
"< c #40526F",
"1 c #203F5E",
"2 c #606580",
"3 c #E3E2EB",
"4 c #16334B",
"5 c #1C274F",
"6 c #55607F",
"7 c #8B81A1",
"8 c #757390",
"9 c #4C546C",
"0 c #867D99",
"q c #9B8BAA",
"w c #131B3E",
"e c #5C5E75",
"r c #AC96B3",
"t c #121A3D",
"y c #151D47",
"u c #0E2A43",
"i c #101A42",
"p c #082545",
"a c #0A263E",
"s c #224059",
"d c #37597A",
"f c #2B4C6C",
"g c #111943",
"h c #111A43",
/* pixels */
"                 .XoO+@##@@X$X  ",
"                ..$$ @+%+# O..  ",
"                .$XO+@##@@@..   ",
"               &.X$ #+@+@ $*&   ",
"             =--------;#+@:.>   ",
"            =,<111<222,-=:3:    ",
"        =--,22<1<2222222,=:.    ",
"      =-,2222<<222222<1114=     ",
"      511111<222222<6777614=    ",
"    =-411677782222<11<2222,=    ",
"   =,2287822222222<1168222,=    ",
"  =-,2222222222222<1168222,=    ",
" =-41<2,--,22222228778222,-;    ",
" =41<2,-41<22222222222222,-=    ",
" =41<2,41168222222222222,--=    ",
"  =,22,41168222222222<114--=    ",
"  =,22<11682222222<111114--=    ",
"  =,228778<11<228778<14--44=    ",
"   =,2222<168222222289---44=    ",
"   =-4111168222222289---414=    ",
"    =-,2<<22222220q9--44--=     ",
"    $w--,88222220e---414-=      ",
"     .;---97qrrre----414=       ",
"    .X+t---------------=        ",
"   &X$$ yu41111111114-=         ",
"   .&XO+@@;--41111114-=         ",
"  &.X$ $+@ippasddf114=          ",
"  .$X@O@@##igX.w-sds=           ",
"  .oOX# @+@hgX&.                ",
" .$X$@+@+#XOX.                  ",
".XoO+@##@@X$X                   ",
".$$ @+%+# O..                   "
};
