/* XPM */
static char *_0bec6cf10ae4293e4dd33edaca1b38f2dJAJXa2r74aDQuS[] = {
/* columns rows colors chars-per-pixel */
"32 32 30 1 ",
"  c #180F40",
". c #190F40",
"X c #190F42",
"o c #190F43",
"O c #181040",
"+ c #181042",
"@ c #181043",
"# c #1A1043",
"$ c #191145",
"% c #1B1047",
"& c #1B1048",
"* c #1B1249",
"= c #1B114A",
"- c #1C1148",
"; c #1C1249",
": c #1C114A",
"> c #1C114B",
", c #1C124C",
"< c #1E134F",
"1 c #1E1350",
"2 c #1F1452",
"3 c #1F1354",
"4 c #1F1454",
"5 c #201353",
"6 c #201354",
"7 c #201456",
"8 c #211557",
"9 c #281E5C",
"0 c #2F2566",
"q c #E3E2EB",
/* pixels */
"888884215,,;>$$##@#@   X   $XX$X",
"8888421<;;>>$-$$$#O#$ O OXX X$$$",
"8883111<>>>->-#$X XX#      $$XX$",
"888861<<0$>>$-#@$$XO # # $X X$X$",
"888311<0q9>oX$X$XX    # # $XXo>-",
"883311<=9>o>-X$X$ $XX . . X &$$o",
"8851<>=>>o-$X-$ X   9#XX#$X$#>o>",
"81<<<<>>--X$X$#  $ 9q9 $X $$$o--",
"481<,,2$-#$&X$ $$ # 9X  $ $X-o>o",
"61<<;;>>$-o$$XX        $X$#-o>>>",
"1<<<->>>$$$$$  $ # # $ XX$XX$=->",
"3<<=->$$>$#9XX     X  $X$X9-->--",
"11>>-=>$X$0q9 # O @ .#$X$9q0>$,,",
"<<<>>oo$-XX9$X.$ OX@.$X$-$0#--,,",
",<==>-o-#X$$ # .X  $.O$$$$--><,5",
"<===-o>XX$    # OXX $ $-X&->;,,,",
">->o>o$$XX@X@ XX X$ $X$--->--,22",
";>>>o$XX$$XOXO OXOX  $X#$o>-;,,2",
";;-o>o$XXX    XX  $X$$#o>>->2,2,",
">>>$$$X$$X$XO O XX$X$$->-->>;228",
";>>-0X$X X   XX  $$X#->o==o<22,8",
"-$$0q9XO # $XO $XXXX$$o>=<1<,218",
"--#$9$X$X   OX$ $X$$$#-o==111368",
"-$$$X$  # X   XXX$X$&>->=<111388",
"$$#X$XX#XO OXOXXX$$$XX9=<>133888",
"$$X$XX.#  oX X$X$$$o>9q0<<118388",
"$#XX$X.#O O 9X$XX$o>>>0<<<133888",
"$X$X XX   X9q9X$X$>o=>>=><138888",
"X$$  $  #.#X9$ $-X>-$><<11238888",
"$XX$X # .X#O X$$$$-><><<11888888",
"$X  OO X# XX.#$$o$--=<1154888888",
"$XX$ O....X$#$$->-o>=<1118888888"
};
