/* XPM */
static char *b2f9296abeda4f1e971456c2dca4c466RQ1Mfm8OMz9Evzzf[] = {
/* columns rows colors chars-per-pixel */
"32 32 9 1 ",
"  c #180F40",
". c #180F42",
"X c #190F43",
"o c #181040",
"O c #191041",
"+ c #181042",
"@ c #181043",
"# c #191043",
"$ c #1B1148",
/* pixels */
"OOOOOOOOOOOOOOOOO#OOXo  X .OXOOO",
"OOOOOOOOOOOOOOOO##XXoX@ o O.OOOO",
"OOOOOOOOOOOOOOOO#XO.o  XXX OOOOO",
"OOOOOOOOOOOOOOOX#OXOXO o oXOXOOO",
"OOOOOOOOOOOOOO##XOX. .X @XO##OOO",
"OOOOOOOOOOOOOOOOOXO O o.OOOOOOOO",
"OOOOOOOOOOOOOOOX#X.@Xo O.OO#OOOO",
"OOOOOOOOOOOOO#@@.@XXXXXOXOOOOOOO",
"OOOOOOOOOOOOOOXOO o XXOXOOOOOOOO",
"OOOOOOOOOOOOOXOX@X X...##OOOOOOO",
"OOOOOOOOOOOXOOXo O O OX#XOOOOOOO",
"OOOOOOOOOOOOXO   . Xo.O##XXOOOOO",
"OOOOOOOOOOOOOXOX@ @ OXOXoXXXOOOO",
"OOOOOOOOOO#OOX.@ @ oXOO#O@XOOOOO",
"OOOOOOOOO#O#X@XOX XoXOXOOOOOOOOO",
"OOOOOOOOOOXOO.@ oXoXOOOOOOOOOOOO",
"OOOOOOOOOXoXoX X XOX#OOOOOOOOOOO",
"OOOOOOOXOOXo O o OXOXOOOOOOOOOOO",
"OOOOOOO#XOXoX X ..OO#OOOOOOOOOOO",
"OOOOOOO#OXoXo.o.OXOXOOOOOOOOOOOO",
"OOOOOOOXOX..  XO.O##OOOOOOOOOOOO",
"OOOOXO#O@.XOX@ OXOXOOOOOOOOOOOOO",
"OOOOOOXoX @ @XOXO#OOOOOOOOOOOOOO",
"OOOOOOoXo X .XOXOOOOOOOOOOOOOOOO",
"OOOXOXXO O.o OXOXOOOOOOOOOOOOOOO",
"OOO#XO@O.  X X#O#OOOOOOOOOOOOOOO",
"OOX#OXXXO.o.oXOXOOOO$OOOOOOOOOOO",
"OO#XO...  X@XOOOOOOOOOOOOOOOOOOO",
"OOOO.OXo O.OXOX#OOOOOOOOOOOOOOOO",
"OOXoX.oXoXO.O#OOOOOOOOOOOOOOOOOO",
"OO@.oX XX.OX#OOOOOOOOOOOOOOOOOOO",
"#XXO o oXOX##OOOOOOOOOOOOOOOOOOO"
};
