/* XPM */
static char *b45e9c7d8b80400c8061d3c2aa36017aqozT2e7diIvzfY2L[] = {
/* columns rows colors chars-per-pixel */
"32 32 12 1 ",
"  c #96BC20",
". c #90B41F",
"X c #A5C92E",
"o c #88AB1D",
"O c #A0C52D",
"+ c #625F66",
"@ c #827678",
"# c #AF9D9D",
"$ c #522F3B",
"% c #CFB4AB",
"& c #8AA140",
"* c #CFD150",
/* pixels */
" .  .  X  ..  .  o .    O      .",
"  .. .  O X     .  . o  .X X .. ",
"...  . .   o . X  .  .  .   .  .",
".  O  . o .o . O .X.  .   . o X ",
" XO  .    .     .   OX . o.. .OX",
" X   . XX   X    o . O X o. o  O",
"   .o . OX ++++++++   O..   .  .",
" o  o. . O+@#####@@+     .   .. ",
". . .  ..+@##@@@@@@$$. . O  X  .",
" . .OX  +@#######@$$$     X..   ",
".o.  OX @@@@####$$$@$$ .     .. ",
".o    O+######%$@@@@$$ . . .o.  ",
" .. . .+####%%$$@@@@@$. .o.     ",
" .  . +####%$$$$$$@@+$$O  .  X .",
"  X  %%%%%%$@@@@$$$$+$$&OX  XO  ",
".  X +++++$@@@@@+$$$++$$&OX O  .",
" . . ++++$$@#@@@+$$$++$$&&O . o ",
" .   ++++$$####@+$$$$++$$& & .  ",
"   X@@@++$$###+++$$$$$+$$&&&   o",
" XO #@@++$$#%%+++$@@+$$$$&&&&O  ",
"XO  +##@@$$#+++++$@@+$$$$$o&& X ",
"O   ++++$$$++++++$@#+$$$$$&.& O ",
" . .++++$$+++$+++$++@$$$$$& &  .",
".   ++++$$+++$++$$++$$$$$&&& .  ",
" o o++++$$+++$+$$$$$$$$*&&X&  . ",
"  .o$$$+$$+++$+$$$$$$$$*&&O  .o ",
" .  &&$$$*$$$$$$$$$$*&&O&O..   .",
"  O  &&&&*&&$$$$*$$&*&   ..  .  ",
" X.  O&&&.&&&&&&*&&&    . o  X .",
"XO  . O... && && &&X  X   o.  X ",
"O .   .  o  & . .  O X  o.  . O ",
"   . .. .  X .. . . . ..  .  .. "
};
