/* XPM */
static char *bb2e82275b854bc6ea96ca86cd166f3dpY81ssnDq9clG60C[] = {
/* columns rows colors chars-per-pixel */
"32 32 12 1 ",
"  c #96BC20",
". c #90B41F",
"X c #A5C92E",
"o c #88AB1D",
"O c #A0C52D",
"+ c #82822E",
"@ c #82822F",
"# c #A69D3E",
"$ c #C4AF43",
"% c #522F3B",
"& c #A69C52",
"* c #8AA140",
/* pixels */
" .  .  X  ..  .  o .    O      .",
"  .. .  O X     .  . o  .X X .. ",
"...  . .   o . ++@.  .  .   .  .",
".  O  . o .o .+@#++.  .   . o X ",
" XO  .    .  @+##+++OX . o.. .OX",
" X   . XX   +##$#+++ O X o. o  O",
"   .o . OX X+#$$##+++ O..   .  .",
" o  o. . O.#$#$##+++%    .   .. ",
". . .  ....++####+%%%% . O  X  .",
" . .OX   . %%#@++%%+%%    X..   ",
".o.  OX X  @+@@%%%@+%% .     .. ",
".o    OX  .@%@@@@@@%%% . . .o.  ",
" .. . .  .#@%%%%%%%%%%. .o.     ",
" .  . .o @##@%@@@%%@@%%O  .  X .",
"  X  X o.@+@$$@@@@@@%%%%OX  XO  ",
".  X X   O%@+#$$##@%%%%% OX O  .",
" . .   .  @%%@@@@@@%%%%% .O . o ",
" .   o.  @#%%%%%%%%%%%%      .  ",
"   X   . @#@%%%%%%%%@%% .  .   o",
" XO  . o .%#$@@&@@@@@%%  .o. O  ",
"XO  .. o o$@#$$$##@@@%%%. o   X ",
"O      . @#@@####@%%%%%% . .. O ",
" . .  X  @##%%%%%%%%%%%%o.  o  .",
".   . O X@#$#%%%%%%@%%%      .  ",
" o o.  .. ++#$#@@@@@%% .  X   . ",
"  .o  .  . ++###@@@%%%OX XO  .o ",
" .      . X %%@@@@%%%. O O..   .",
"  O  X X .***%%%%%%%**   ..  .  ",
" X.  OX  *****%%%%***** . o  X .",
"XO  . O..*****%%%%*****   o.  X ",
"O .   .  o*****%%*****  o.  . O ",
"   . .. .  ********** ..  .  .. "
};
