/* XPM */
static char *buckfront1[] = {
/* columns rows colors chars-per-pixel */
"32 32 15 1 ",
"  c #96BC20",
". c #90B41F",
"X c #A5C92E",
"o c #332F2A",
"O c #A0C52D",
"+ c #4C453D",
"@ c #645E55",
"# c #88AB1D",
"$ c #7D766C",
"% c #A29973",
"& c #857C57",
"* c #C1B99C",
"= c #2E1E22",
"- c #D9D9DD",
"; c #760000",
/* pixels */
" .  .  X  ..  . ooo.    O      .",
"  .. .  O X    o+@@o #  .X X .. ",
"...  . .   # . Xo+$@o.  .   .  .",
".  O  . # .# . O o$$%o.   . # X ",
" XO  .    .     .o$$%o . #.. .OX",
" X   . XX   X    o$@&o X #. #  O",
"   .# . OX X #. o+@&o O..   .  .",
" #  #. . O.X.#oooooo     .   .. ",
". . .  .... oo+@@@+oo. . O  X  .",
" . .OX   . o+@@$$$@@+o    X..   ",
".#.  OX X o+o@$$$$$@o+o.     .. ",
".#    OX  o$+o@@@@@o+$o. . .#.  ",
" .. . .  .o%$+ooooo+$%o .#.     ",
" .  . .# o+*%@o+++o@%*+o  .  X .",
"  X  X #.o+*@$@@@@@$@*+oOX  XO  ",
".  X X   o+@$$$$$$$$$@+o OX O  .",
" . .   .o++@@$$$$$$$@@++o.O . # ",
" .   #. o+++oo@$$$@oo+++o    .  ",
"   X   .o++o=-+@@@+-=o++o  .   #",
" XO  . #o+@@;;+@@@+;;@@+o.#. O  ",
"XO  .. # o+@@@@$$$@@@@+o. #   X ",
"O      . oo&@@$$$$$@@&oo . .. O ",
" . .  X  o+o&%*o=o*%&o+o#.  #  .",
".   . O Xo++o&%%&%%&o++o     .  ",
" # #.  ..o+@+oo&&&oo+@+o  X   . ",
"  .#  .  .o@@+ooooo+@@oX XO  .# ",
" .      . o@$+o . o+$@oO O..   .",
"  O  X X .o$$@o   o@$$o  ..  .  ",
" X.  OX  .o@$$o. Xo$$@o . #  X .",
"XO  . O... ooo #  OoooX   #.  X ",
"O .   .  #    . .  O X  #.  . O ",
"   . .. .  X .. . . . ..  .  .. "
};
