/* XPM */
static char *result[] = {
/* columns rows colors chars-per-pixel */
"32 32 50 1 ",
"  c #96BC20",
". c #90B41F",
"X c #A5C92E",
"o c #88AB1D",
"O c #A0C52D",
"+ c #C0C865",
"@ c #BDC465",
"# c #EAD4AA",
"$ c #E9C5A0",
"% c #BFB95B",
"& c #BCB55B",
"* c #E8B796",
"= c #D59E7F",
"- c #ACA044",
"; c #C5CD6C",
": c #C69921",
"> c #D6AC89",
", c #C7C062",
"< c #F77622",
"1 c #DA6028",
"2 c #D38062",
"3 c #F0A566",
"4 c #DC7D45",
"5 c #C39520",
"6 c #BF911F",
"7 c #CEA028",
"8 c #BE4A2F",
"9 c #B03831",
"0 c #E77632",
"q c #DF966C",
"w c #CC4E2A",
"e c #FA922B",
"r c #D77643",
"t c #AA8327",
"y c #CA6039",
"u c #EA923B",
"i c #DE7C31",
"p c #D06A33",
"a c #A77F26",
"s c #FEAE34",
"d c #BC4E3B",
"f c #B28A2E",
"g c #A22633",
"h c #9C7129",
"j c #996D28",
"k c #BB9E37",
"l c #B69931",
"z c #BEA038",
"x c #B39530",
"c c #A47830",
/* pixels */
" .  .  X  ..  .  o .    O      .",
"  .. .  O X     .  . o  .X X .. ",
"...  . .   o . X  .  .  .   .  .",
".  O  . o .o . O .X.  .   . o X ",
" XO  .    .     .   OX . o.. .OX",
" X   . XX   X    o . O X o. o  O",
"   .o . OX X o. .o.   O..   .  .",
" o  o. . O.X.o .  ..     .   .. ",
". . .  ....  ..o .  o. . O  X  .",
" . .OX   .    ..   .o     X..   ",
".o.  OX X  . .   X  +@ .++   .. ",
".o    OX  .   .   X #$%.##+&o.  ",
" .. . .  .  O  X. O+$*= #$$*    ",
" .  . .o     X.O. +#=%-;$*== X .",
"  X  X o.  .:::::&#>-.+$*,--XO  ",
".  X X   O :<<<11234563*%OX O  .",
" . .   .  7<<<1891<<0<<q .O . o ",
" .   o.  :<<0189w<e00<0rt    .  ",
"   X   .:<00y89we0ur<00y8  .   o",
" XO  . o<0ry89w<errr0r188.o. O  ",
"XO  ..:6<ryiip1<<u0rr088a o   X ",
"O    :11<yieeei1<e0rr088t. .. O ",
" . .:1811ie000e110rrrry88a  o  .",
".   <88<8s0rrr00yyrrrrry88t  .  ",
" o o<88<8srrryrrryyrrrrry88   . ",
"  .o188<8urrrydyrryyrrrrr88  .o ",
" .  t88w9yrrrr99yyrydrrry88.   .",
"  O  f89g9yrrry999ddgyyy88a  .  ",
" X.  Ofthjtklzxahchhhtttato  X .",
"XO  . O...  .  o  OX  X   o.  X ",
"O .   .  o    . .  O X  o.  . O ",
"   . .. .  X .. . . . ..  .  .. "
};
