/* XPM */
static char *_0133a9089ed4b07eaed271b3bfbf4defF9cellRLwZ95fj6[] = {
/* columns rows colors chars-per-pixel */
"32 32 12 1 ",
"  c #96BC20",
". c #90B41F",
"X c #A5C92E",
"o c #88AB1D",
"O c #A0C52D",
"+ c #141B1B",
"@ c #EF9597",
"# c #FFCBA9",
"$ c #CF736D",
"% c #4E484A",
"& c #965746",
"* c #E46D3A",
/* pixels */
" .  .  X  ..  .  o .    O      .",
"  .. .  O X     .  . o  .X X .. ",
"...  . .  +++++++++++.  .   .  .",
".  O  .+++@@@@@@@@@@@+++  . o X ",
" XO  ++#################+++. .OX",
" X ++######################++  O",
"  +##########################+ .",
" +@##########################@+ ",
".+@@######################@@#@+.",
" +##########################@@+ ",
"+@############################@ ",
"+@############################@ ",
"++@##########################@+ ",
"+@############################@.",
"+@@###########################@ ",
"+@@###########################@.",
"+@@@#####################@###@@ ",
" +@@####@#################@#@@+ ",
"+$$@@##@###@####@#########@@@@@o",
"+$$$@@@@###@####@####@@##@@@@@@ ",
"X++$$@@@@@@@@##@@@##@@@@@@@$@++ ",
"O ++$$@@@@@@@@@@@@@@@@@@@@$$++O ",
" .+$$$$@@$@@@@@$@@@$@@@@$$$$$+ .",
". +$$$$$$$$@@$$$@@@$$@@$$$$$$+  ",
" o ++$$$%$$$$$$$$$$$$$$$$$$++ . ",
"  .+&&%%%%%%%%$$$$%&$$%%%%%%+.o ",
" . +&&&**%&&&&&&%&%&&&&%%%%&+  .",
"  +**&**********&*&*&&&%&%&&*+  ",
" X+*************&*&*&&&%&&&&&+ .",
"XO *************&***&&&&&&&&& X ",
"O .   *************&&&&&&&  . O ",
"   . .. .  X .. . . . ..  .  .. "
};
