/* XPM */
static char *result[] = {
/* columns rows colors chars-per-pixel */
"32 32 15 1 ",
"  c #96BC20",
". c #90B41F",
"X c #A5C92E",
"o c #88AB1D",
"O c #A0C52D",
"+ c #332F2A",
"@ c #4C453D",
"# c #7D766C",
"$ c #A29973",
"% c #857C57",
"& c #645E55",
"* c #C1B99C",
"= c #2E1E22",
"- c #D9D9DD",
"; c #760000",
/* pixels */
" .  .  X  ..  .  o .    O      .",
"  .. .  O X     .  . o  .X X .. ",
"...  . .   o . X  .  .  .   .  .",
".  O  . o .o . O .X.  .   . o X ",
" XO  .    .     .   OX . o.. .OX",
" X   . XX   X    o . O X o. o  O",
"   .o . OX X o. .o.   O..   .  .",
" o  o. . O.X.o .  ..     .   .. ",
". . .  ....  ..o .  +. . O  X  .",
" . .OX   .    ..   +@+    X..   ",
".o.  OX X  . .   X+@#@+.     .. ",
".o  +++X  .   .   +@$#++ . .o.  ",
" ..+%#&+ .  O  X.+@$*$+@++.     ",
" .+%#@+o     X.O.+&$*#&&&@+  X .",
" +%$#+ o.  .    +@&$&####&@+XO  ",
".+%$#+   O   . .+&&&######&@+  .",
" +%$#+ .  X   .+@&#########&+ o ",
" .+$&@+  ++++++@&&#####@++&&+.  ",
"  +%&&@++@@&&&&&&&#####+=-@&@+ o",
" XO+%&+@&########&#####&;;@#&@+ ",
"XO  ++@&################&&##+=+ ",
"O   +@&####################*$%+ ",
" . .+@&#####&############**$%+ .",
".   +@&#####@&#######%%%$$%++.  ",
" o o+@&####&@%$$%###@++++++   . ",
"  .o +@&#&@+%%%%+###+@+X XO  .o ",
" .   +@&&@+++++++&##+@+O O..   .",
"  O  +@##@+@+ X +&##+@@+ ..  .  ",
" X.  O+##&+@+X..+@##&+@+. o  X .",
"XO  . +&##++.  o +&##++   o.  X ",
"O .   .+++    . . +++X  o.  . O ",
"   . .. .  X .. . . . ..  .  .. "
};
