/* XPM */
static char *result[] = {
/* columns rows colors chars-per-pixel */
"32 32 15 1 ",
"  c #96BC20",
". c #90B41F",
"X c #A5C92E",
"o c #88AB1D",
"O c #A0C52D",
"+ c #332F2A",
"@ c #645E55",
"# c #7D766C",
"$ c #857C57",
"% c #A29973",
"& c #4C453D",
"* c #C1B99C",
"= c #2E1E22",
"- c #D9D9DD",
"; c #760000",
/* pixels */
" .  .  X  ..  .  o .    O      .",
"  .. .  O X     .  . o  .X X .. ",
"...  . .   o .+++ .  .  .   .  .",
".  O  . o .o +@#@++.  .   . o X ",
" XO  .    .   +@##$+OX . o.. .OX",
" X   . XX   X  +@#%$+O X o. o  O",
"   .o . OX X o. +##%+ O..   .  .",
" o  o. . O.X.o .+@#%+    .   .. ",
". . .  ....  ..o+&@$+. . O  X  .",
" . .OX   .    .+++++o     X..   ",
".o.  OX X  . ++&@@@&++ .     .. ",
".o    OX  . +&@@###@@&+. . .o.  ",
" .. . .  . +&+@#####@+&+.o.     ",
" .  . .o   +#&+@@@@@+&#+  .  X .",
"  X  X o.  +%#&+++++&#%+OX  XO  ",
".  X X   O+&*%@+&&&+@%*&+OX O  .",
" . .   .  +&*@#@@@@@#@*&+.O . o ",
" .   o.   +&@#########@&+    .  ",
"   X   . +&&@@#######@@&&+ .   o",
" XO  . o +&&&++@###@++&&&+o. O  ",
"XO  .. o +&&+=-&@@@&-=+&&+o   X ",
"O      . +&@@;;&@@@&;;@@&+ .. O ",
" . .  X  .+&@@@@###@@@@&+.  o  .",
".   . O X ++$@@#####@@$++    .  ",
" o o.  .. +&+$%*+=+*%$+&+ X   . ",
"  .o  .  .+&&+$%%$%%$+@&+XO  .o ",
" .      . X+@&++$$$++@#&+O..   .",
"  O  X X .O+&@&+++++@##+ ..  .  ",
" X.  OX  . O+&&&+X+&##@+. o  X .",
"XO  . O...  .+++  +@##&   o.  X ",
"O .   .  o    . . +##@+ o.  . O ",
"   . .. .  X .. . . . ..  .  .. "
};
