/* XPM */
static char *result[] = {
/* columns rows colors chars-per-pixel */
"32 32 42 1 ",
"  c #96BC20",
". c #90B41F",
"X c #A5C92E",
"o c #4E643C",
"O c #39433C",
"+ c #88AB1D",
"@ c #A0C52D",
"# c #648A04",
"$ c #78A205",
"% c #95BB1F",
"& c #B1D83B",
"* c #A4CB2E",
"= c #8DB01E",
"- c #789329",
"; c #95BB20",
": c #6E8535",
"> c #5D722C",
", c #769327",
"< c #94BA20",
"1 c #6F8637",
"2 c #61792E",
"3 c #60752C",
"4 c #759128",
"5 c #83A51C",
"6 c #738E28",
"7 c #62762D",
"8 c #7C952F",
"9 c #8BAF1E",
"0 c #8FB31E",
"q c #92B81F",
"w c #93B81F",
"e c #91B51F",
"r c #6F8B26",
"t c #748E28",
"y c #708927",
"u c #95B82A",
"i c #8DB11E",
"p c #9DBF2C",
"a c #90B51F",
"s c #8FB31F",
"d c #94B91F",
"f c #8EB11F",
/* pixels */
" .  .  X  ..  ooO+ .    @      .",
"  .. .  @ X# $###o O +  .X X .. ",
"...  . . #$$%%$%$$o#oOO .   .  .",
".  @  . #$%&&&*$&*%$##oO  . + X ",
" X@  .#$%&&&&&&%*&&*%$o#oO.. .@X",
" X   #$%%*&&&&&*&&**$%$%#oO +  @",
"   .+**&&%*&&**%%**%$%%%%$# .  .",
" +  #%&&&*%*&&&&*%$%%***%$oO .. ",
". .#%&&&*%*&&&&&&*%$%*&&*%#oO  .",
" . $%*&*%%&&&&&&**%$**&*&*#oO   ",
".+#$$%*%$*&&&*&**%*%*&*&**$#oO. ",
".+#%*&&*%%*&*&*&%*%$%&&**%$#O.  ",
" o$%&&&&*$%****%$%%$$%**%$#o#O  ",
" .#*&*&**%*%*%$%$$%***%$$#$#oOO.",
" o$%***%%*&&&*%$%*&&*%%%$$##OO  ",
".o#$%%%%*&&*&*&%%&&&&**%%$#o#oO.",
" .o#$%%$*&*&***%**&**%$$$%$##oO ",
" o#o#$#$%****%*$**%*&**%$$$#oOo ",
" o####$$%%%*%*%%*%*&*&**%$##ooO+",
" o#$#$%$$%$%*$%$%**&&**%%##o#oO ",
"XOo$$#$%$$%$%%$$$%****%%$oo#oOO ",
"@Oo##$#$#$$%***%%$%%%$$#####oO@ ",
" .Oo##o#$#$%%*%%$%$$#$$$#o#oOoO.",
".  Oo##o##$$%$%$%$#$$###oo#ooO  ",
" +OoOo##oo#$$#$$$#o####oo#ooOO. ",
"  .OOooo#oo##$#####ooooooooOO=+ ",
" .  OOoooOooo###ooo##oOooOOO-; .",
"  @  :OoOoOoooooooOooooOO>O,<.  ",
" X.  @1O2OoOOoooOOooOOO3O45; X .",
"X@  . @.=6O7OOOOOOOO3O890q+.  X ",
"@ .   .  +we04rtyttuipaw+.  . @ ",
"   . .. .  X ssd=wf<s ..  .  .. "
};
