/* XPM */
static char *result[] = {
/* columns rows colors chars-per-pixel */
"32 32 19 1 ",
"  c #96BC20",
". c #90B41F",
"X c #A5C92E",
"o c #596C64",
"O c #A0C52D",
"+ c #86B4B6",
"@ c #AACCCC",
"# c #88AB1D",
"$ c #C9E0DF",
"% c #E2EFEE",
"& c #80DAF1",
"* c #76C9E0",
"= c #4C8191",
"- c #76C3D7",
"; c #6194A4",
": c #4D6570",
"> c #2E1E22",
", c #6DBAD1",
"< c #65ACC0",
/* pixels */
" .  .  X  .. ooooo .    O      .",
"  .. .  O Xoo+@@@+oo #  .X X .. ",
"...  . . oo+@$$$$$@+oo  .   .  .",
".  O  . o+@$$$%%%$$$@+o   . # X ",
" XO  . o+@$$$%%%%%$$$@+o #.. .OX",
" X   .o+@$$$$%%%%%$$$$@+o#. #  O",
"   .#o+@$$$$$$%%%$$$$$$@+o  .  .",
" #  #o@@$$$$$$$$$$$$$$$@@o   .. ",
". . o+@@@$$$@$$$$$@$$$@@@+o X  .",
" . .o+@+o@$@o@$$$@o@$@o+@+o..   ",
".#. o++o&o@o&o@$@o&o@o&o++o  .. ",
".#  o+o*&&o&&&o@o&&&o&&*o+o.#.  ",
" .. .o=*&-;;-&&o&&-;;-&*=o.     ",
" .  . =*-:>>:-&&&-:>>:-*= .  X .",
"  X  X=*;>>>>;&&&;>>>>;*=X  XO  ",
".  X X=*;>>>>;&&&;>>>>;*=OX O  .",
" . .  =*-:>>:-&&&-:>>:-*=.O . # ",
" .   #=*&-;;-&&&&&-;;-&*=    .  ",
"   X  =**&&&&&&&&&&&&&**=  .   #",
" XO  .=,*=&&<&&&&&<&&=*,=.#. O  ",
"XO  ..=<*=&&=&&&&&=&&=*<= #   X ",
"O      =,=**=&&&&&=**=,= . .. O ",
" . .  X=<,==*******==,<=#===#  .",
".   . O =<,*********,<===<<<=.  ",
" # #.  .=<<,*******,<<<<<<====. ",
"  .#  .  =<<<,,,,,<<<<<<<=O  .# ",
" .      . =<<<<<<<<<<<<<=O..   .",
"  O  X X .O==<<<<<<<<<== ..  .  ",
" X.  OX  . O =========  . #  X .",
"XO  . O...  .  #  OX  X   #.  X ",
"O .   .  #    . .  O X  #.  . O ",
"   . .. .  X .. . . . ..  .  .. "
};
