/* XPM */
static char *result[] = {
/* columns rows colors chars-per-pixel */
"32 32 15 1 ",
"  c #96BC20",
". c #90B41F",
"X c #A5C92E",
"o c #88AB1D",
"O c #A0C52D",
"+ c #596C64",
"@ c #86B4B6",
"# c #AACCCC",
"$ c #C9E0DF",
"% c #E2EFEE",
"& c #76C9E0",
"* c #4C8191",
"= c #80DAF1",
"- c #6DBAD1",
"; c #65ACC0",
/* pixels */
" .  .  X  ..  .  o .    O      .",
"  .. .  O X     .  . o  .X X .. ",
"...  . .   o . +++++ .  .   .  .",
".  O  . o .o ++@###@++.   . o X ",
" XO  .    .++@#$$$$$#@++ o.. .OX",
" X   . XX +@#$$$$$$$$$#@+o. o  O",
"   .o . O+@#$$$$%%%$$$$#@+  .  .",
" o  o. .+@#$$$$%%%%%$$$$#@+  .. ",
". . .  +@#$$$$$%%%%%$$$$$#@+X  .",
" . .OX +##$$$$$$%%%$$$$$$##+.   ",
".o.  O+@##$$$$$$$$$$$$$$$##@+.. ",
".o    +@##$$$$$$$$$$$$$$$##@+.  ",
" .. . +@@+#$$$#$$$$$#$$$#+@@+   ",
" .  . +@+&+#$#+#$$$#+#$#+&+@+X .",
"  X  X +*&=+#+=+#$#+=+#+=&*+XO  ",
".  X X  *&==+===+#+===+==&* O  .",
" . .   .*&=======+=======&* . o ",
" .   o. *&===============&*  .  ",
"   X   .*&===============&*.   o",
" XO  . o*&===============&*. O  ",
"XO  .. o*&&=============&&*   X ",
"O      .*-&=============&-*.. O ",
" . .  X *;&&===========&&;* o  .",
".   . O X*-&===========&-*   .  ",
" o o.  ..*;-&=========&-;*X   . ",
"  .o  . ***;-&=======&-;*XO  .o ",
" .   * *&===========&-;;*O..   .",
"  O *&*&&&&======&&--;;* ..  .  ",
" X. *;&-;;---&&&&--;;;* . o  X .",
"XO  .******;;;;;;;;;**X   o.  X ",
"O .   .  o ********* X  o.  . O ",
"   . .. .  X .. . . . ..  .  .. "
};
