/* XPM */
static char *result[] = {
/* columns rows colors chars-per-pixel */
"32 32 20 1 ",
"  c #96BC20",
". c #90B41F",
"X c #A5C92E",
"o c #88AB1D",
"O c #A0C52D",
"+ c #8C8433",
"@ c #847D2C",
"# c #AF9C3F",
"$ c #6A7128",
"% c #7D752A",
"& c #A79538",
"* c #676D27",
"= c #898232",
"- c #733E39",
"; c #955644",
": c #3E2731",
"> c #583235",
", c #7B4B40",
"< c #72782F",
"1 c #6F762E",
/* pixels */
" .  .  X  ..  .  o .    O      .",
"  .. .  O X     .  . o  .X X .. ",
"...  . .   o . X  .  .  .   .  .",
".  O  . o .o . O .X.  .   . o X ",
" XO  .    .     .   OX . o.. .OX",
" X   . X+@@@#$@@@%&*@=@+&o. o  O",
"   .o .$----;:----;:----;   .  .",
" o  o. :-----:-----:-----.   .. ",
". . .  :-----:-----:-----O  X  .",
" . .OX :-----:-----:----- X..   ",
".o.  OX:-----:-----:-----    .. ",
".o    O:>>>>>:>>>>>:>>>>>. .o.  ",
" .. . .:>>>>,:>>>>,:>>>>,o.     ",
" .  . .:----;:----;:----; .  X .",
"  X  X :-----:-----:-----X  XO  ",
".  X X :-----:-----:-----OX O  .",
" . .   :-----:-----:-----.O . o ",
" .   o.:-----:-----:-----    .  ",
"   X   :>>>>>:>>>>>:>>>>>  .   o",
" XO  . :>>>>,:>>>>,:>>>>,.o. O  ",
"XO  .. :----;:----;:----; o   X ",
"O      :-----:-----:-----. .. O ",
" . .  X:-----:-----:-----.  o  .",
".   . O:-----:-----:-----    .  ",
" o o.  :-----:-----:----- X   . ",
"  .o  .:>>>>>:>>>>>:>>>>>XO  .o ",
" .     $*$<$$$$$*$$$**$1$O..   .",
"  O  X X .OX  X    . o   ..  .  ",
" X.  OX  . O X.. X      . o  X .",
"XO  . O...  .  o  OX  X   o.  X ",
"O .   .  o    . .  O X  o.  . O ",
"   . .. .  X .. . . . ..  .  .. "
};
