/* XPM */
static char *_46386746b374256c62005eddd62d882ngjscxv4OtDgwLgD[] = {
/* columns rows colors chars-per-pixel */
"32 32 16 1 ",
"  c #96BC20",
". c #90B41F",
"X c #A5C92E",
"o c #88AB1D",
"O c #A0C52D",
"+ c #693A35",
"@ c #CF9363",
"# c #CC7A57",
"$ c #A64E44",
"% c #E69A67",
"& c #522F3B",
"* c #A6735E",
"= c #7D5046",
"- c #8AA140",
"; c #CFD150",
": c #AEBD42",
/* pixels */
" .  .  X  ..  .  o .    O      .",
"  .. .  O X     .  . o  .X X .. ",
"...  . .   o . X  .  .  .   .  .",
".  O  . o .o . O .X.  .   . o X ",
" XO  .    .     .   OX . o.. .OX",
" X   . XX   X    o . O X o. o  O",
"   .o . OX X++++++++  O..   .  .",
" o  o. . O++@@@@@@@@++   .   .. ",
". . .  .++@@@@@#######++ O  X  .",
" . .OX +###@@$$$$$$@@@@%+ X..   ",
".o.  O+@#@@$$@@@@@@$$@@@%+   .. ",
".o   +@@@@$##########$###%+.o.  ",
" .. .+@@@$@@@$$$$$$@@@$@@%+     ",
" .  +@@@$@%%$@@@@@@$@@@$@@%+ X .",
"  X +##@$##$@@###@@@$@@$##%+XO  ",
".  X+@@@$@@$########$@@$%%@+O  .",
" . ++%%%$@@$@@###@@@$@@$@@@++ o ",
" . ++##@@$@@$$@@@@$$@@$####++.  ",
"   ++%@@@$@@@@$$$$%%%@$@@@@++  o",
" X++++%@@@$@@@@@@@@@@$@@@@++++  ",
"X&+*=+&%@@@$$@@@@@@$$@@@@&+=*+& ",
"-&=**+&+#@@@@$$$$$$##%%#+&+**=& ",
"-&=++&&&&+%%%#####@@@@+&&&&++=&.",
"--&&&&&&++++++++++++++++&&&&&&- ",
" -----&+===++=====+++===+&----- ",
" -;---&+=**++++++++++**=+&--;-o ",
" -;--&+=**=&&&&&&&&&&==*=+&- - .",
" -:-;&+*==++&&&&&:&&++==*+&--.- ",
" X--;&+++++&&&-;-;-&&&&+++&--X-.",
"XO  --&&&&&&---;-------&&&--  X ",
"O .  ------:-:-:-:-:-;----- . O ",
"   . .. - -:-:::: - -:--:::  .. "
};
