/* XPM */
static char *_bc9fcee71f8460edd38a3bf8f5b9b86KaeIBD1OsbHwPp6t[] = {
/* columns rows colors chars-per-pixel */
"31 32 8 1 ",
"  c None",
". c #522F3B",
"X c #82822E",
"o c #82822F",
"O c #A69D3E",
"+ c #A69C52",
"@ c #8AA140",
"# c #C4AF43",
/* pixels */
"                               ",
"                               ",
"               XXo             ",
"              XoOXX            ",
"             oXOOXXX           ",
"            XOO#OXXX           ",
"            XO##OOXXX          ",
"           O#O#OOXXX.          ",
"           XXOOOOX....         ",
"           ..OoXX..X..         ",
"           XXoo...oX..         ",
"           o.oooooo...         ",
"          Oo..........         ",
"         oOOo.ooo..oo..        ",
"         oXo##oooooo....       ",
"          .oXO##OOo.....       ",
"          o..oooooo.....       ",
"         oO............        ",
"         oOo........o..        ",
"          .O#oo+ooooo..        ",
"          #oO###OOooo...       ",
"         oOooOOOOo......       ",
"         oOO............       ",
"         oO#O......o...        ",
"          XXO#Oooooo..         ",
"           XXOOOooo...         ",
"            ..oooo...          ",
"          @@@.......@@         ",
"         @@@@@....@@@@@        ",
"         @@@@@....@@@@@        ",
"          @@@@@..@@@@@         ",
"           @@@@@@@@@@          "
};
