/* XPM */
static char *result[] = {
/* columns rows colors chars-per-pixel */
"32 32 29 1 ",
"  c #96BC20",
". c #90B41F",
"X c #A5C92E",
"o c #88AB1D",
"O c #A0C52D",
"+ c #332F2A",
"@ c #879E21",
"# c #4C453D",
"$ c #A99458",
"% c #9B854C",
"& c #897233",
"* c #645420",
"= c #7D8821",
"- c #8EA42A",
"; c #645E55",
": c #766329",
"> c #9D8543",
", c #839820",
"< c #7D766C",
"1 c #4E4117",
"2 c #7A8420",
"3 c #38311A",
"4 c #1F1B0E",
"5 c #A29973",
"6 c #C1B99C",
"7 c #92A72A",
"8 c #857C57",
"9 c #7E921E",
"0 c #858E28",
/* pixels */
" .  .  X  ..  .  o .    O      .",
"  .. .  O X     .  . o  .X X .. ",
"...  . .   o . X  .  .  .   .  .",
".  O  . o .o + O .X.  .+  . o X ",
" XO  .    .@+#+$%&*=-X+#+o.. .OX",
" X   . XX@&&+;#+%*:&>+#;+o. o  O",
"   .o .@&*%&+;;#+++++#;;+@  .  .",
" o  o,&*&*%+#;<;+###+;<;#+@  .. ",
". . ,:*1:*&+#;<<;;;;;<<;#+$@X  .",
" . .*111**:+#<<<<<<<<<<<#+$$,   ",
".o.1**11*:+#;<<<<<<<<<<<;#+$&,. ",
".o@11*111:+#;<<<<<<<<<<<;#+>:2  ",
" .131*13*:+##;<<<<<<<<<;##+>::  ",
" ,333113*:+###;;;<<<;;;###+&*&@.",
" 13313131:*+#+#;<<<<<;#+#+&>*&: ",
".3333*333*1++#;<<<<<<<;#++>>*>:.",
" 333131313*+#;;<<<<<<<;;#+&>:&: ",
" 33331333*3+###;<<+++;###+:>:>: ",
" 13413131313+#;<<+565+;#+1:&:>:o",
" *333133313+#;<<+56<+<<;#+*::>: ",
"X-343334333+#<<+56<+<<<<#+1::&7 ",
"O 143144434+;<<+56<+<<<<;+1*::O ",
" .@34334343+;<<+855+<<<<;+31:= .",
".  14344434+#;<<+#555<<;#+33*.  ",
" o 91434344+##;8555558;##+41@ . ",
"  .o@144444+###+88888+###+1@ .o ",
" .   @134444+#;#+++++#;#+1,.   .",
"  O  X 01344+;<#+444+#<;+,.  .  ",
" X.  OX @213+<<;+444+;<<+ o  X .",
"XO  . O... @+;<<+110+<<;+ o.  X ",
"O .   .  o   +++.  O +++o.  . O ",
"   . .. .  X .. . . . ..  .  .. "
};
