/* XPM */
static char *result[] = {
/* columns rows colors chars-per-pixel */
"32 32 32 1 ",
"  c #96BC20",
". c #90B41F",
"X c #A5C92E",
"o c #332F2A",
"O c #A0C52D",
"+ c #4C453D",
"@ c #645E55",
"# c #88AB1D",
"$ c #7D766C",
"% c #A29973",
"& c #879E21",
"* c #7D8821",
"= c #645420",
"- c #9B854C",
"; c #A99458",
": c #897233",
"> c #766329",
", c #857C57",
"< c #92A72A",
"1 c #9D8543",
"2 c #7A8420",
"3 c #839820",
"4 c #4E4117",
"5 c #38311A",
"6 c #C1B99C",
"7 c #1F1B0E",
"8 c #2E1E22",
"9 c #D9D9DD",
"0 c #760000",
"q c #8EA42A",
"w c #7E921E",
"e c #858E28",
/* pixels */
" .  .  X  ..  . ooo.    O      .",
"  .. .  O X    o+@@o #  .X X .. ",
"...  . .   # . Xo+$@o.  .   .  .",
".  O  . # .# . O o$$%o.   . # X ",
" XO  .    .&*=-;-o$$%o . #.. .OX",
" X   . XX&::>=:;-o$@,o*< #. #  O",
"   .# .&:=-:>=:;o+@,o1=>2&  .  .",
" #  #3:=:=-::4oooooo;;=:;1&  .. ",
". . 3>=4>=::oo+@@@+oo;=1;>;&X  .",
" . .=444==>o+@@$$$@@+o411>;;3   ",
".#.4==44=>o+o@$$$$$@o+o1;=;;:3. ",
".#&44=444>o$+o@@@@@o+$o:14;1>2  ",
" .454=45=>o%$+ooooo+$%o::=;1>>  ",
" 3555445=o+6%@o+++o@%6+o>41:=:&.",
" 45545454o+6@$@@@@@$@6+o:4:1=:> ",
".5555=555o+@$$$$$$$$$@+o1411=1>.",
" 5554545o++@@$$$$$$$@@++o4:1>:> ",
" 5555455o+++oo@$$$@oo+++o4>1>1> ",
" 4574545o++o89+@@@+98o++o4>:>1>#",
" =555455o+@@00+@@@+00@@+o4=>>1> ",
"Xq5755575o+@@@@$$$@@@@+o4=4>>:< ",
"O 4754777oo,@@$$$$$@@,oo454=>>O ",
" .&575575o+o,%6o8o6%,o+o5554>* .",
".  475777o++o,%%,%%,o++o7555=.  ",
" # w47575o+@+oo,,,oo+@+o5574& . ",
"  .#&47777o@@+ooooo+@@o7754& .# ",
" .   &4577o@$+o777o+$@o7543.   .",
"  O  X e45o$$@o777o@$$o4*3.  .  ",
" X.  OX &2o@$$o777o$$@o&. #  X .",
"XO  . O... ooo44444oooX   #.  X ",
"O .   .  #    . .  O X  #.  . O ",
"   . .. .  X .. . . . ..  .  .. "
};
