/* XPM */
static char *result[] = {
/* columns rows colors chars-per-pixel */
"32 32 22 1 ",
"  c #96BC20",
". c #90B41F",
"X c #A5C92E",
"o c #88AB1D",
"O c #A0C52D",
"+ c #879E21",
"@ c #7D8821",
"# c #645420",
"$ c #9B854C",
"% c #A99458",
"& c #897233",
"* c #8EA42A",
"= c #766329",
"- c #9D8543",
"; c #92A72A",
": c #4E4117",
"> c #7A8420",
", c #839820",
"< c #38311A",
"1 c #1F1B0E",
"2 c #7E921E",
"3 c #858E28",
/* pixels */
" .  .  X  ..  .  o .    O      .",
"  .. .  O X     .  . o  .X X .. ",
"...  . .   o . X  .  .  .   .  .",
".  O  . o .o . O .X.  .   . o X ",
" XO  .    .+@#$%$&#@*X . o.. .OX",
" X   . XX+&&=#&%$#=&-%@; o. o  O",
"   .o .+&#$&=#&%&:=-%-#=>+  .  .",
" o  o,&#&#$&&:=$=:=-%%#&%-+  .. ",
". . ,=#:=#&&&:=&#:=&-%#-%=%+X  .",
" . .#:::##=&=:#=#:#=&%:--=%%,   ",
".o.:##::#=#=#::#:#&#:&#-%#%%&,. ",
".o+::#:::=:#&#:::&&#&::&-:%-=>  ",
" .:<:#:<#=##&=::#=&#-#:&&#%-==  ",
" ,<<<::<#=#=&=:#=#=&-=#&=:-&#&+.",
" :<<:<:<:=#=&=#:=&#&&=:-&:&-#&= ",
".<<<<#<<<#:===#:#=:&-=:--:--#-=.",
" <<<:<:<:<#:=##<###&&##-&:&-=&= ",
" <<<<:<<<#<:=#:::#:=&#:-&:=-=-= ",
" :<1:<:<:<:<#::<:::==#:&=:=&=-=o",
" #<<<:<<<:<:<:<1:<:#::<=::#==-= ",
"X*<1<<<1<<<<<<<1<<<:<<<::#:==&; ",
"O :1<:111<1<1<111<1<1<<<:<:#==O ",
" .+<1<<1<1<1<1<111<1<1<1<<<:=@ .",
".  :1<111<1<1111111<1<1<1<<<#.  ",
" o 2:1<1<1111111111111<1<<1:+ . ",
"  .o+:1111111111111111111<:+ .o ",
" .   +:<1111111111111111<:,.   .",
"  O  X 3:<111111111111<:@,.  .  ",
" X.  OX +>:<11111111<:@+. o  X .",
"XO  . O... +>::::::3++X   o.  X ",
"O .   .  o    . .  O X  o.  . O ",
"   . .. .  X .. . . . ..  .  .. "
};
