/* XPM */
static char *result[] = {
/* columns rows colors chars-per-pixel */
"32 32 32 1 ",
"  c #96BC20",
". c #90B41F",
"X c #A5C92E",
"o c #88AB1D",
"O c #A0C52D",
"+ c #879E21",
"@ c #7D8821",
"# c #645420",
"$ c #9B854C",
"% c #A99458",
"& c #897233",
"* c #8EA42A",
"= c #766329",
"- c #9D8543",
"; c #92A72A",
": c #4E4117",
"> c #7A8420",
", c #839820",
"< c #332F2A",
"1 c #4C453D",
"2 c #7D766C",
"3 c #A29973",
"4 c #38311A",
"5 c #C1B99C",
"6 c #645E55",
"7 c #857C57",
"8 c #D9D9DD",
"9 c #2E1E22",
"0 c #760000",
"q c #7E921E",
"w c #1F1B0E",
"e c #858E28",
/* pixels */
" .  .  X  ..  .  o .    O      .",
"  .. .  O X     .  . o  .X X .. ",
"...  . .   o . X  .  .  .   .  .",
".  O  . o .o . O .X.  .   . o X ",
" XO  .    .+@#$%$&#@*X . o.. .OX",
" X   . XX+&&=#&%$#=&-%@; o. o  O",
"   .o .+&#$&=#&%&:=-%-#=>+  .  .",
" o  o,&#&#$&&:=$=:=-%%#&%-+  .. ",
". . ,=#:=#&<&:=&#:=&-%#-%=%+X  .",
" . .#:::##<1<:#=#:#=&%:--=%%,   ",
".o.:##::#<121<:#:#&#:&#-%#%%&,. ",
".o+::#::<<231<:::&&#&::&-<<<=>  ",
" .:4:#<<1<3531<:#=&#-#:&<627<=  ",
" ,444<16662536<#=#=&-=#&=<127<+.",
" :44<1622226361<=&#&&=:-&:<237< ",
".44<16222222666<#=:&-=:--:<237<.",
" 44<622222222261<##&&##-&:<237< ",
" 44<66<<122222661<<<<<<-&<163<= ",
" :<16189<22222666666611<<1667<=o",
" <16210062222262222222261<67<-= ",
"X<9<2266222222222222222261<<=&; ",
"O<7352222222222222222222261<==O ",
" .<735522222222222262222261<=@ .",
".  <<7337772222222612222261<#.  ",
" o q:<<<<<<1222733716222261<+ . ",
"  .o+:www<1<222<7777<16261<+ .o ",
" .   +:4w<1<226<<<<<<<1661<.   .",
"  O  X e<11<226<www<1<1221<  .  ",
" X.  OX <1<6221<www<1<622<o  X .",
"XO  . O..<<226<::::e<<226<o.  X ",
"O .   .  o <<<. .  O X<<<.  . O ",
"   . .. .  X .. . . . ..  .  .. "
};
