/* XPM */
static char *result[] = {
/* columns rows colors chars-per-pixel */
"32 32 31 1 ",
"  c #96BC20",
". c #90B41F",
"X c #A5C92E",
"o c #88AB1D",
"O c #A0C52D",
"+ c #879E21",
"@ c #7D8821",
"# c #645420",
"$ c #9B854C",
"% c #A99458",
"& c #897233",
"* c #8EA42A",
"= c #766329",
"- c #9D8543",
"; c #92A72A",
": c #4E4117",
"> c #7A8420",
", c #839820",
"< c #332F2A",
"1 c #4C453D",
"2 c #7D766C",
"3 c #A29973",
"4 c #857C57",
"5 c #645E55",
"6 c #C1B99C",
"7 c #38311A",
"8 c #2E1E22",
"9 c #D9D9DD",
"0 c #760000",
"q c #1F1B0E",
"w c #7E921E",
/* pixels */
" .  .  X  ..  .  o .    O      .",
"  .. .  O X     .  . o  .X X .. ",
"...  . .   o . X  .  .  .   .  .",
".  O  . o .o . O .X.  .   . o X ",
" XO  .    .+@#$%$&#@*X . o.. .OX",
" X   . XX+&&=#&%$#=&-%@; o. o  O",
"   .o .+&#$&=#&%&:=-%-#=>+  .  .",
" o  o,&#&#$&&:=$=:=-%%#&%-+  .. ",
". . ,=#:=#&&&:=&#:=&<%#-%=%+X  .",
" . .#:::##=&=:#=#:#<1<:--=%%,   ",
".o.:##::#=#=#::#:#<121<-%#%%&,. ",
".o+:<<<::=:#&#:::&<132<<-:%-=>  ",
" .:<425<#=##&=::#<1363<1<<%-==  ",
" ,<421<7#=#=&=:#=<53625551<&#&+.",
" <432<:7:=#=&=#:<1535222251<#&= ",
".<432<777#:===#:<55522222251<-=.",
" <432<:7:7#:=##<152222222225<&= ",
" 7<351<77<<<<<<155222221<<55<-= ",
" :<4551<<11555555522222<89151<=o",
" #7<45<15222222225222225001251< ",
"X*7q<<1522222222222222225522<8< ",
"O :q<1522222222222222222222634< ",
" .+7<152222252222222222226634< .",
".  :<1522222152222222444334<<.  ",
" o w<1522225143342221<<<<<<:+ . ",
"  .o+<15251<4444<222<1<qq7:+ .o ",
" .   <1551<<<<<<<522<1<q7:,.   .",
"  O  <1221<1<qqq<522<11<@,.  .  ",
" X.  O<225<1<qqq<1225<1<. o  X .",
"XO  . <522<<>::::<522<<   o.  X ",
"O .   .<<<    . . <<<X  o.  . O ",
"   . .. .  X .. . . . ..  .  .. "
};
