/* XPM */
static char *e33bb87af74c4a2cb84df933fdc55662GeaT8FPrOToYXr2i[] = {
/* columns rows colors chars-per-pixel */
"31 32 8 1 ",
"  c None",
". c #522F3B",
"X c #625F66",
"o c #827678",
"O c #8AA140",
"+ c #CFD150",
"@ c #AF9D9D",
"# c #CFB4AB",
/* pixels */
"                               ",
"                               ",
"                               ",
"                               ",
"                               ",
"                               ",
"           XXXXXXXX            ",
"          Xo@@@@@ooX           ",
"         Xo@@oooooo..          ",
"        Xo@@@@@@@o...          ",
"        oooo@@@@...o..         ",
"       X@@@@@@#.oooo..         ",
"       X@@@@##..ooooo.         ",
"      X@@@@#......ooX..        ",
"     ######.oooo....X..O       ",
"     XXXXX.oooooX...XX..O      ",
"     XXXX..o@oooX...XX..OO     ",
"     XXXX..@@@@oX....XX..O O   ",
"    oooXX..@@@XXX.....X..OOO   ",
"    @ooXX..@##XXX.ooX....OOOO  ",
"    X@@oo..@XXXXX.ooX..... OO  ",
"    XXXX...XXXXXX.o@X.....O O  ",
"    XXXX..XXX.XXX.XXo.....O O  ",
"    XXXX..XXX.XX..XX.....OOO   ",
"    XXXX..XXX.X........+OO O   ",
"    ...X..XXX.X........+OO     ",
"    OO...+..........+OO O      ",
"     OOOO+OO....+..O+O         ",
"      OOO OOOOOO+OOO           ",
"           OO OO OO            ",
"            O                  ",
"                               "
};
