/* XPM */
static char *_6e7b2a1c43a4e6cae46d5e6fad0545dApCu2hAgHtEocFc9[] = {
/* columns rows colors chars-per-pixel */
"31 32 12 1 ",
"  c None",
". c #522F3B",
"X c #693A35",
"o c #7D5046",
"O c #A64E44",
"+ c #A6735E",
"@ c #CC7A57",
"# c #8AA140",
"$ c #AEBD42",
"% c #CF9363",
"& c #E69A67",
"* c #CFD150",
/* pixels */
"                               ",
"                               ",
"                               ",
"                               ",
"                               ",
"                               ",
"            XXXXXXXX           ",
"          XX%%%%%%%%XX         ",
"        XX%%%%%@@@@@@@XX       ",
"       X@@@%%OOOOOO%%%%&X      ",
"      X%@%%OO%%%%%%OO%%%&X     ",
"     X%%%%O@@@@@@@@@@O@@@&X    ",
"     X%%%O%%%OOOOOO%%%O%%&X    ",
"    X%%%O%&&O%%%%%%O%%%O%%&X   ",
"    X@@%O@@O%%@@@%%%O%%O@@&X   ",
"    X%%%O%%O@@@@@@@@O%%O&&%X   ",
"   XX&&&O%%O%%@@@%%%O%%O%%%XX  ",
"   XX@@%%O%%OO%%%%OO%%O@@@@XX  ",
"   XX&%%%O%%%%OOOO&&&%O%%%%XX  ",
"  XXXX&%%%O%%%%%%%%%%O%%%%XXXX ",
" .X+oX.&%%%OO%%%%%%OO%%%%.Xo+X.",
"#.o++X.X@%%%%OOOOOO@@&&@X.X++o.",
"#.oXX....X&&&@@@@@%%%%X....XXo.",
"##......XXXXXXXXXXXXXXXX......#",
" #####.XoooXXoooooXXXoooX.#####",
" #*###.Xo++XXXXXXXXXX++oX.##*# ",
" #*##.Xo++o..........oo+oX.# # ",
" #$#*.X+ooXX.....$..XXoo+X.## #",
"  ##*.XXXXX...#*#*#....XXX.## #",
"    ##......###*#######...##   ",
"     ######$#$#$#$#$#*#####    ",
"        # #$#$$$$ # #$##$$$    "
};
