/* XPM */
static char *_e01a7f0a377403dbbbd3dd5d834d26dlNNlItq7zLQ8XfGR[] = {
/* columns rows colors chars-per-pixel */
"32 32 4 1 ",
"  c #595652",
". c #43403E",
"X c #696A6A",
"o c #847E87",
/* pixels */
"        .                 XX    ",
"XXX  ... XXXXXooooooooXXXXXX XXX",
"oXXXX . XXooooooooooooooooooXXoo",
"ooXXX  XXXoooooooooooooooooooXoo",
"ooXXX  XXXoooooooooXoooooooooooo",
"ooXXX . XXXoooooooXXoooooooooooo",
"XXX  ...  XXooooXXX Xooooooooooo",
"   .                XXXXX       ",
"    XXXXXX       .              ",
"ooooooooooooooXXX    ... XX  XXo",
"ooooooooooooooooooXXX . XoXXXooo",
"oooooooooooooooooooXX  XooXXoooo",
"oooooooooooooooXoooXX  Xoooooooo",
"ooooooooooooooXXXoXX . Xoooooooo",
"XXXooXXXoooXXXX X   ..  XXXXXXXX",
"                 ..   ..        ",
"  ........         XXXX         ",
"XX    ... XXXXXooooooXXXXXXXXXXX",
"ooXXXX . XXooooooooooooooooooooo",
"oooXXX  XXoooooooooooooooooooooo",
"ooooXX  XXooXXoooooooooXXXXXXooo",
"oooXX .  XXXXooooooooooooXXooooo",
"XXX  ...    XXXXXXXXXooooooooooX",
"   .    .             XXXXXXX   ",
"      XX             .       .. ",
"XXXX XXXXXooooXXXXXXX   ...    X",
"oooXXXXoooooooooooooooXX . XXXoo",
"ooooXooooooooooooooooooXX  XXooo",
"ooooooooooooooooooooooXXX  XXooo",
"ooooooooooooooooooooXXXXX . XXoo",
"XXXXooooXXXXXXXXXXXXXXXX ... XXX",
"    XXXX                ..  .   "
};
