/* XPM */
static char *_86d45d3d1a34133e61621ecc34a1f67AtId3dpBJPISgtnv[] = {
/* columns rows colors chars-per-pixel */
"32 32 11 1 ",
"  c #180F40",
". c #180F42",
"X c #190F43",
"o c #181040",
"O c #191041",
"+ c #181042",
"@ c #181043",
"# c #191043",
"$ c #1B1148",
"% c #281E5C",
"& c #E3E2EB",
/* pixels */
"OOOOOOOOOOOOOOOOO#OOXo  X .OXOOO",
"OOOOOOOOOOOOOOOO##XXoX@ o O.OOOO",
"OOOOOOOOOOOOOOOO#XO.o  XXX OOOOO",
"OOOOOOOOOOOOOOOX#OXOXO o oXOXOOO",
"OOOOOOOOOOOOOO##XOX. .X @X%##OOO",
"OOOOOOOOOOOOOOOOOXO O o.O%&%OOOO",
"OOOOOOOOOOOOOOOX#X.@Xo O.O%#OOOO",
"OOOOOOOOOOOOO#@@.@XXXXXOXOOOOOOO",
"OOOOOOOOOOOOOOXOO o XXOXOOOOOOOO",
"OOOOOOOOOOOOOXOX@X X...##OOOOOOO",
"OOOOOOOOOOOXOOXo O O OX#XOOOOOOO",
"OOOOOOOOOOO%XO   . Xo.O##XXOOOOO",
"OOOOOOOOOO%&%XOX@ @ OXOXoXXXOOOO",
"OOOOOOOOOO#%OX.@ @ oXOO#O@XOOOOO",
"OOOOOOOOO#O#X@XOX XoXOXOOOOOOOOO",
"OOOOOOOOOOXOO.@ oXoXOOOOOOOOOOOO",
"OOOOOOOOOXoXoX X XOX#OOOOOOOOOOO",
"OOOOOOOXOOXo O o OXOXOOOOOOOOOOO",
"OOOOOOO#XOXoX X ..OO#OOOOOOOOOOO",
"OOOOOOO#OXoXo.o.OXOXOOOOOOOOOOOO",
"OOOOOOOXOX..  XO.O##OOOOOOOOOOOO",
"OOOOXO#O@.XOX@ OXOXOOOOOOOOOOOOO",
"OOOOOOXoX @ @XOXO#OOOOOOOOOOOOOO",
"OOOOOOoXo X .XOXOOOOOOOOOOOOOOOO",
"OOOXOXXO O.o OXOXOO%OOOOOOOOOOOO",
"OOO#XO@O.  X X#O#O%&%OOOOOOOOOOO",
"OOX#OXXXO.o.oXOXOOO%$OOOOOOOOOOO",
"OO#XO...  X@XOOOOOOOOOOOOOOOOOOO",
"OOOO.OXo O.OXOX#OOOOOOOOOOOOOOOO",
"OOXoX.oXoXO.O#OOOOOOOOOOOOOOOOOO",
"OO@.oX XX.OX#OOOOOOOOOOOOOOOOOOO",
"#XXO o oXOX##OOOOOOOOOOOOOOOOOOO"
};
